# xmcd
#
# Track frame offsets:
#	165
#	7151
#	11233
#	14506
#	21677
#	28722
#	32469
#	43542
#	48682
#	57878
#	65570
#	72429
#	83511
#
# Disc length: 1232 seconds
#
# Revision: 1
# Processed by: cddbd v1.5.1PL0 Copyright (c) Steve Scherf et al.
# Submitted via: audiograbber 1.83.01
#
DISCID=b004ce0d
DTITLE=Junges Kammerorchester Nordrhein-Westfalen - Einfach tierisch
DYEAR=1998
DGENRE=Kindermusik
TTITLE0=Königlicher Marsch des Löwen
TTITLE1=Hühner und Hähne
TTITLE2=Wilde Esel
TTITLE3=Schildkröten 
TTITLE4=Der Elefant
TTITLE5=Kängurus
TTITLE6=Aquarium
TTITLE7=Persönlichkeiten mit langen Ohren
TTITLE8=Der Kuckuck in der Tiefe des Waldes
TTITLE9=Das Vogelhaus
TTITLE10=Fossilien
TTITLE11=Der Schwan
TTITLE12=Finale
EXTD=
EXTT0=
EXTT1=
EXTT2=
EXTT3=
EXTT4=
EXTT5=
EXTT6=
EXTT7=
EXTT8=
EXTT9=
EXTT10=
EXTT11=
EXTT12=
PLAYORDER=
